<svg id="visual" viewBox="0 0 900 450" width="900" height="450" xmlns="http://www.w3.org/2000/svg" xmlns:xlink="http://www.w3.org/1999/xlink" version="1.1"><g stroke-width="1" stroke-linejoin="bevel"><path d="M487 257L503 214L401 173Z" fill="#013f5b" stroke="#013f5b"></path><path d="M401 173L388 288L487 257Z" fill="#00132b" stroke="#00132b"></path><path d="M401 173L335 168L388 288Z" fill="#02516e" stroke="#02516e"></path><path d="M503 214L519 117L401 173Z" fill="#014864" stroke="#014864"></path><path d="M401 173L318 86L335 168Z" fill="#035a78" stroke="#035a78"></path><path d="M315 308L366 346L388 288Z" fill="#003651" stroke="#003651"></path><path d="M388 288L506 391L487 257Z" fill="#000000" stroke="#000000"></path><path d="M335 168L315 308L388 288Z" fill="#014864" stroke="#014864"></path><path d="M519 117L427 52L401 173Z" fill="#00132b" stroke="#00132b"></path><path d="M600 309L618 188L503 214Z" fill="#000000" stroke="#000000"></path><path d="M503 214L618 188L519 117Z" fill="#013f5b" stroke="#013f5b"></path><path d="M600 309L503 214L487 257Z" fill="#046481" stroke="#046481"></path><path d="M427 52L318 86L401 173Z" fill="#02516e" stroke="#02516e"></path><path d="M236 278L301 338L315 308Z" fill="#000000" stroke="#000000"></path><path d="M575 347L600 309L487 257Z" fill="#02516e" stroke="#02516e"></path><path d="M366 346L506 391L388 288Z" fill="#002d47" stroke="#002d47"></path><path d="M506 391L575 347L487 257Z" fill="#003651" stroke="#003651"></path><path d="M236 278L315 308L335 168Z" fill="#013f5b" stroke="#013f5b"></path><path d="M315 308L301 338L366 346Z" fill="#002d47" stroke="#002d47"></path><path d="M366 346L393 450L506 391Z" fill="#001c34" stroke="#001c34"></path><path d="M618 188L584 70L519 117Z" fill="#000000" stroke="#000000"></path><path d="M519 117L511 0L427 52Z" fill="#002d47" stroke="#002d47"></path><path d="M214 157L236 278L335 168Z" fill="#013f5b" stroke="#013f5b"></path><path d="M584 70L511 0L519 117Z" fill="#046481" stroke="#046481"></path><path d="M427 52L373 0L318 86Z" fill="#035a78" stroke="#035a78"></path><path d="M511 0L373 0L427 52Z" fill="#003651" stroke="#003651"></path><path d="M183 128L214 157L318 86Z" fill="#000000" stroke="#000000"></path><path d="M318 86L214 157L335 168Z" fill="#00132b" stroke="#00132b"></path><path d="M269 450L366 346L301 338Z" fill="#035a78" stroke="#035a78"></path><path d="M269 450L393 450L366 346Z" fill="#046481" stroke="#046481"></path><path d="M393 450L515 450L506 391Z" fill="#003651" stroke="#003651"></path><path d="M506 391L619 450L575 347Z" fill="#002d47" stroke="#002d47"></path><path d="M732 365L687 273L600 309Z" fill="#013f5b" stroke="#013f5b"></path><path d="M126 330L228 344L236 278Z" fill="#001c34" stroke="#001c34"></path><path d="M236 278L228 344L301 338Z" fill="#00132b" stroke="#00132b"></path><path d="M732 365L600 309L575 347Z" fill="#035a78" stroke="#035a78"></path><path d="M600 309L687 273L618 188Z" fill="#00132b" stroke="#00132b"></path><path d="M695 50L591 0L584 70Z" fill="#002d47" stroke="#002d47"></path><path d="M373 0L315 0L318 86Z" fill="#014864" stroke="#014864"></path><path d="M584 70L591 0L511 0Z" fill="#014864" stroke="#014864"></path><path d="M703 171L584 70L618 188Z" fill="#00132b" stroke="#00132b"></path><path d="M687 273L703 171L618 188Z" fill="#014864" stroke="#014864"></path><path d="M169 0L183 128L318 86Z" fill="#000000" stroke="#000000"></path><path d="M214 157L128 185L236 278Z" fill="#00132b" stroke="#00132b"></path><path d="M228 344L269 450L301 338Z" fill="#00243e" stroke="#00243e"></path><path d="M515 450L619 450L506 391Z" fill="#001c34" stroke="#001c34"></path><path d="M703 171L695 50L584 70Z" fill="#003651" stroke="#003651"></path><path d="M183 128L128 185L214 157Z" fill="#003651" stroke="#003651"></path><path d="M228 344L179 450L269 450Z" fill="#001c34" stroke="#001c34"></path><path d="M619 450L732 365L575 347Z" fill="#000000" stroke="#000000"></path><path d="M687 273L817 218L703 171Z" fill="#02516e" stroke="#02516e"></path><path d="M830 81L772 0L695 50Z" fill="#02516e" stroke="#02516e"></path><path d="M772 0L690 0L695 50Z" fill="#046481" stroke="#046481"></path><path d="M695 50L690 0L591 0Z" fill="#002d47" stroke="#002d47"></path><path d="M99 239L126 330L236 278Z" fill="#02516e" stroke="#02516e"></path><path d="M128 185L99 239L236 278Z" fill="#00243e" stroke="#00243e"></path><path d="M183 128L122 89L128 185Z" fill="#00132b" stroke="#00132b"></path><path d="M128 185L0 167L99 239Z" fill="#013f5b" stroke="#013f5b"></path><path d="M169 0L122 89L183 128Z" fill="#013f5b" stroke="#013f5b"></path><path d="M315 0L169 0L318 86Z" fill="#00243e" stroke="#00243e"></path><path d="M126 330L179 450L228 344Z" fill="#00243e" stroke="#00243e"></path><path d="M619 450L709 450L732 365Z" fill="#046481" stroke="#046481"></path><path d="M779 340L687 273L732 365Z" fill="#00132b" stroke="#00132b"></path><path d="M779 340L790 291L687 273Z" fill="#002d47" stroke="#002d47"></path><path d="M819 450L779 340L732 365Z" fill="#00132b" stroke="#00132b"></path><path d="M900 146L817 218L900 295Z" fill="#002d47" stroke="#002d47"></path><path d="M790 291L817 218L687 273Z" fill="#001c34" stroke="#001c34"></path><path d="M169 0L116 0L122 89Z" fill="#003651" stroke="#003651"></path><path d="M122 89L0 167L128 185Z" fill="#002d47" stroke="#002d47"></path><path d="M830 81L695 50L703 171Z" fill="#002d47" stroke="#002d47"></path><path d="M0 349L120 450L126 330Z" fill="#002d47" stroke="#002d47"></path><path d="M126 330L120 450L179 450Z" fill="#001c34" stroke="#001c34"></path><path d="M817 218L830 81L703 171Z" fill="#046481" stroke="#046481"></path><path d="M900 337L900 295L790 291Z" fill="#035a78" stroke="#035a78"></path><path d="M817 218L900 146L830 81Z" fill="#013f5b" stroke="#013f5b"></path><path d="M709 450L819 450L732 365Z" fill="#001c34" stroke="#001c34"></path><path d="M0 75L0 167L122 89Z" fill="#001c34" stroke="#001c34"></path><path d="M99 239L0 294L126 330Z" fill="#000000" stroke="#000000"></path><path d="M0 167L0 294L99 239Z" fill="#046481" stroke="#046481"></path><path d="M0 294L0 349L126 330Z" fill="#003651" stroke="#003651"></path><path d="M900 295L817 218L790 291Z" fill="#001c34" stroke="#001c34"></path><path d="M830 81L900 0L772 0Z" fill="#013f5b" stroke="#013f5b"></path><path d="M900 337L790 291L779 340Z" fill="#002d47" stroke="#002d47"></path><path d="M116 0L0 75L122 89Z" fill="#000000" stroke="#000000"></path><path d="M819 450L900 337L779 340Z" fill="#014864" stroke="#014864"></path><path d="M900 146L900 95L830 81Z" fill="#00132b" stroke="#00132b"></path><path d="M116 0L0 0L0 75Z" fill="#003651" stroke="#003651"></path><path d="M0 349L0 450L120 450Z" fill="#001c34" stroke="#001c34"></path><path d="M900 95L900 0L830 81Z" fill="#003651" stroke="#003651"></path><path d="M819 450L900 450L900 337Z" fill="#02516e" stroke="#02516e"></path></g></svg>