<svg id="visual" viewBox="0 0 900 600" width="900" height="600" xmlns="http://www.w3.org/2000/svg" xmlns:xlink="http://www.w3.org/1999/xlink" version="1.1"><g stroke-width="1" stroke-linejoin="bevel"><path d="M450 300L405 300L450 342.9Z" fill="#001222" stroke="#001222"></path><path d="M405 300L405 342.9L450 342.9Z" fill="#001524" stroke="#001524"></path><path d="M405 342.9L450 385.7L450 342.9Z" fill="#001e2d" stroke="#001e2d"></path><path d="M405 342.9L405 385.7L450 385.7Z" fill="#001e2d" stroke="#001e2d"></path><path d="M450 300L450 257.1L405 300Z" fill="#001524" stroke="#001524"></path><path d="M450 257.1L405 257.1L405 300Z" fill="#000000" stroke="#000000"></path><path d="M450 385.7L495 342.9L450 342.9Z" fill="#001e2d" stroke="#001e2d"></path><path d="M450 342.9L495 342.9L450 300Z" fill="#011928" stroke="#011928"></path><path d="M450 300L495 300L450 257.1Z" fill="#000000" stroke="#000000"></path><path d="M360 300L360 342.9L405 300Z" fill="#011c2b" stroke="#011c2b"></path><path d="M405 300L360 342.9L405 342.9Z" fill="#001524" stroke="#001524"></path><path d="M405 342.9L360 342.9L405 385.7Z" fill="#011c2b" stroke="#011c2b"></path><path d="M495 342.9L495 300L450 300Z" fill="#00202f" stroke="#00202f"></path><path d="M405 257.1L360 300L405 300Z" fill="#011726" stroke="#011726"></path><path d="M450 385.7L495 385.7L495 342.9Z" fill="#011c2b" stroke="#011c2b"></path><path d="M360 342.9L360 385.7L405 385.7Z" fill="#000f1f" stroke="#000f1f"></path><path d="M495 300L495 257.1L450 257.1Z" fill="#001222" stroke="#001222"></path><path d="M405 257.1L360 257.1L360 300Z" fill="#001222" stroke="#001222"></path><path d="M360 385.7L405 428.6L405 385.7Z" fill="#001e2d" stroke="#001e2d"></path><path d="M405 385.7L405 428.6L450 385.7Z" fill="#001222" stroke="#001222"></path><path d="M450 385.7L450 428.6L495 385.7Z" fill="#011928" stroke="#011928"></path><path d="M405 428.6L450 428.6L450 385.7Z" fill="#011928" stroke="#011928"></path><path d="M450 257.1L405 214.3L405 257.1Z" fill="#001524" stroke="#001524"></path><path d="M405 257.1L405 214.3L360 257.1Z" fill="#00202f" stroke="#00202f"></path><path d="M450 214.3L405 214.3L450 257.1Z" fill="#011726" stroke="#011726"></path><path d="M495 257.1L450 214.3L450 257.1Z" fill="#011c2b" stroke="#011c2b"></path><path d="M495 385.7L540 342.9L495 342.9Z" fill="#000f1f" stroke="#000f1f"></path><path d="M495 342.9L540 342.9L495 300Z" fill="#001e2d" stroke="#001e2d"></path><path d="M495 300L540 300L495 257.1Z" fill="#011c2b" stroke="#011c2b"></path><path d="M540 385.7L540 342.9L495 385.7Z" fill="#011726" stroke="#011726"></path><path d="M315 300L315 342.9L360 300Z" fill="#001e2d" stroke="#001e2d"></path><path d="M360 300L315 342.9L360 342.9Z" fill="#00071b" stroke="#00071b"></path><path d="M360 342.9L315 342.9L360 385.7Z" fill="#011928" stroke="#011928"></path><path d="M360 385.7L360 428.6L405 428.6Z" fill="#001222" stroke="#001222"></path><path d="M540 342.9L540 300L495 300Z" fill="#011928" stroke="#011928"></path><path d="M360 257.1L315 300L360 300Z" fill="#011726" stroke="#011726"></path><path d="M450 428.6L495 428.6L495 385.7Z" fill="#011928" stroke="#011928"></path><path d="M315 385.7L360 428.6L360 385.7Z" fill="#011726" stroke="#011726"></path><path d="M540 257.1L495 214.3L495 257.1Z" fill="#000000" stroke="#000000"></path><path d="M495 257.1L495 214.3L450 214.3Z" fill="#00071b" stroke="#00071b"></path><path d="M405 214.3L360 214.3L360 257.1Z" fill="#00202f" stroke="#00202f"></path><path d="M360 257.1L315 257.1L315 300Z" fill="#00071b" stroke="#00071b"></path><path d="M495 428.6L540 385.7L495 385.7Z" fill="#00071b" stroke="#00071b"></path><path d="M315 342.9L315 385.7L360 385.7Z" fill="#000b1d" stroke="#000b1d"></path><path d="M360 214.3L315 257.1L360 257.1Z" fill="#011c2b" stroke="#011c2b"></path><path d="M540 300L540 257.1L495 257.1Z" fill="#011928" stroke="#011928"></path><path d="M360 428.6L405 471.4L405 428.6Z" fill="#001222" stroke="#001222"></path><path d="M405 428.6L405 471.4L450 428.6Z" fill="#011726" stroke="#011726"></path><path d="M450 428.6L450 471.4L495 428.6Z" fill="#001524" stroke="#001524"></path><path d="M405 471.4L450 471.4L450 428.6Z" fill="#000b1d" stroke="#000b1d"></path><path d="M450 214.3L405 171.4L405 214.3Z" fill="#011928" stroke="#011928"></path><path d="M405 214.3L405 171.4L360 214.3Z" fill="#000f1f" stroke="#000f1f"></path><path d="M450 171.4L405 171.4L450 214.3Z" fill="#011928" stroke="#011928"></path><path d="M495 214.3L450 171.4L450 214.3Z" fill="#00071b" stroke="#00071b"></path><path d="M315 385.7L315 428.6L360 428.6Z" fill="#00202f" stroke="#00202f"></path><path d="M360 428.6L360 471.4L405 471.4Z" fill="#001222" stroke="#001222"></path><path d="M495 471.4L540 428.6L495 428.6Z" fill="#001e2d" stroke="#001e2d"></path><path d="M495 428.6L540 428.6L540 385.7Z" fill="#011726" stroke="#011726"></path><path d="M360 171.4L315 214.3L360 214.3Z" fill="#000000" stroke="#000000"></path><path d="M360 214.3L315 214.3L315 257.1Z" fill="#011928" stroke="#011928"></path><path d="M540 257.1L540 214.3L495 214.3Z" fill="#001524" stroke="#001524"></path><path d="M495 214.3L495 171.4L450 171.4Z" fill="#00071b" stroke="#00071b"></path><path d="M315 300L270 342.9L315 342.9Z" fill="#000000" stroke="#000000"></path><path d="M315 342.9L270 342.9L315 385.7Z" fill="#001222" stroke="#001222"></path><path d="M315 385.7L270 385.7L315 428.6Z" fill="#011726" stroke="#011726"></path><path d="M270 300L270 342.9L315 300Z" fill="#011928" stroke="#011928"></path><path d="M270 300L315 300L315 257.1Z" fill="#000b1d" stroke="#000b1d"></path><path d="M540 385.7L585 342.9L540 342.9Z" fill="#000b1d" stroke="#000b1d"></path><path d="M540 342.9L585 342.9L540 300Z" fill="#000000" stroke="#000000"></path><path d="M540 300L585 300L540 257.1Z" fill="#001524" stroke="#001524"></path><path d="M540 257.1L585 257.1L540 214.3Z" fill="#00071b" stroke="#00071b"></path><path d="M585 385.7L585 342.9L540 385.7Z" fill="#001222" stroke="#001222"></path><path d="M585 342.9L585 300L540 300Z" fill="#000000" stroke="#000000"></path><path d="M270 257.1L270 300L315 257.1Z" fill="#00202f" stroke="#00202f"></path><path d="M450 471.4L495 471.4L495 428.6Z" fill="#000b1d" stroke="#000b1d"></path><path d="M315 428.6L360 471.4L360 428.6Z" fill="#000b1d" stroke="#000b1d"></path><path d="M540 214.3L495 171.4L495 214.3Z" fill="#00202f" stroke="#00202f"></path><path d="M405 171.4L360 171.4L360 214.3Z" fill="#00202f" stroke="#00202f"></path><path d="M540 428.6L585 385.7L540 385.7Z" fill="#00071b" stroke="#00071b"></path><path d="M270 342.9L270 385.7L315 385.7Z" fill="#011c2b" stroke="#011c2b"></path><path d="M585 300L585 257.1L540 257.1Z" fill="#000f1f" stroke="#000f1f"></path><path d="M315 214.3L270 257.1L315 257.1Z" fill="#00071b" stroke="#00071b"></path><path d="M495 471.4L540 471.4L540 428.6Z" fill="#000b1d" stroke="#000b1d"></path><path d="M540 428.6L585 428.6L585 385.7Z" fill="#000000" stroke="#000000"></path><path d="M270 428.6L315 471.4L315 428.6Z" fill="#011928" stroke="#011928"></path><path d="M315 428.6L315 471.4L360 471.4Z" fill="#00202f" stroke="#00202f"></path><path d="M360 171.4L315 171.4L315 214.3Z" fill="#001222" stroke="#001222"></path><path d="M315 214.3L270 214.3L270 257.1Z" fill="#00071b" stroke="#00071b"></path><path d="M585 214.3L540 171.4L540 214.3Z" fill="#001524" stroke="#001524"></path><path d="M540 214.3L540 171.4L495 171.4Z" fill="#011928" stroke="#011928"></path><path d="M270 385.7L270 428.6L315 428.6Z" fill="#000f1f" stroke="#000f1f"></path><path d="M540 471.4L585 428.6L540 428.6Z" fill="#011c2b" stroke="#011c2b"></path><path d="M315 171.4L270 214.3L315 214.3Z" fill="#011c2b" stroke="#011c2b"></path><path d="M585 257.1L585 214.3L540 214.3Z" fill="#00202f" stroke="#00202f"></path><path d="M405 514.3L405 471.4L360 471.4Z" fill="#000f1f" stroke="#000f1f"></path><path d="M405 514.3L450 514.3L405 471.4Z" fill="#001222" stroke="#001222"></path><path d="M405 471.4L450 514.3L450 471.4Z" fill="#011726" stroke="#011726"></path><path d="M450 471.4L450 514.3L495 471.4Z" fill="#011c2b" stroke="#011c2b"></path><path d="M495 471.4L495 514.3L540 471.4Z" fill="#001e2d" stroke="#001e2d"></path><path d="M360 514.3L405 514.3L360 471.4Z" fill="#00202f" stroke="#00202f"></path><path d="M450 128.6L450 171.4L495 171.4Z" fill="#011c2b" stroke="#011c2b"></path><path d="M450 128.6L405 128.6L450 171.4Z" fill="#011c2b" stroke="#011c2b"></path><path d="M450 171.4L405 128.6L405 171.4Z" fill="#000f1f" stroke="#000f1f"></path><path d="M405 171.4L405 128.6L360 171.4Z" fill="#00202f" stroke="#00202f"></path><path d="M360 171.4L360 128.6L315 171.4Z" fill="#001e2d" stroke="#001e2d"></path><path d="M495 128.6L450 128.6L495 171.4Z" fill="#001524" stroke="#001524"></path><path d="M585 385.7L630 342.9L585 342.9Z" fill="#00202f" stroke="#00202f"></path><path d="M585 342.9L630 342.9L585 300Z" fill="#00202f" stroke="#00202f"></path><path d="M585 300L630 300L585 257.1Z" fill="#000f1f" stroke="#000f1f"></path><path d="M585 257.1L630 257.1L585 214.3Z" fill="#001222" stroke="#001222"></path><path d="M630 385.7L630 342.9L585 385.7Z" fill="#011928" stroke="#011928"></path><path d="M270 300L225 342.9L270 342.9Z" fill="#011928" stroke="#011928"></path><path d="M270 342.9L225 342.9L270 385.7Z" fill="#011928" stroke="#011928"></path><path d="M270 385.7L225 385.7L270 428.6Z" fill="#000000" stroke="#000000"></path><path d="M225 300L225 342.9L270 300Z" fill="#011726" stroke="#011726"></path><path d="M225 300L270 300L270 257.1Z" fill="#001222" stroke="#001222"></path><path d="M225 257.1L225 300L270 257.1Z" fill="#000b1d" stroke="#000b1d"></path><path d="M630 342.9L630 300L585 300Z" fill="#011928" stroke="#011928"></path><path d="M450 514.3L495 514.3L495 471.4Z" fill="#000b1d" stroke="#000b1d"></path><path d="M315 471.4L360 514.3L360 471.4Z" fill="#001e2d" stroke="#001e2d"></path><path d="M405 128.6L360 128.6L360 171.4Z" fill="#000b1d" stroke="#000b1d"></path><path d="M540 171.4L495 128.6L495 171.4Z" fill="#011928" stroke="#011928"></path><path d="M585 428.6L630 385.7L585 385.7Z" fill="#00202f" stroke="#00202f"></path><path d="M225 342.9L225 385.7L270 385.7Z" fill="#001222" stroke="#001222"></path><path d="M270 214.3L225 257.1L270 257.1Z" fill="#001524" stroke="#001524"></path><path d="M630 300L630 257.1L585 257.1Z" fill="#000000" stroke="#000000"></path><path d="M540 514.3L585 471.4L540 471.4Z" fill="#000000" stroke="#000000"></path><path d="M540 471.4L585 471.4L585 428.6Z" fill="#011928" stroke="#011928"></path><path d="M585 428.6L630 428.6L630 385.7Z" fill="#011928" stroke="#011928"></path><path d="M270 428.6L270 471.4L315 471.4Z" fill="#011726" stroke="#011726"></path><path d="M315 471.4L315 514.3L360 514.3Z" fill="#011928" stroke="#011928"></path><path d="M225 428.6L270 471.4L270 428.6Z" fill="#000f1f" stroke="#000f1f"></path><path d="M315 128.6L270 171.4L315 171.4Z" fill="#011c2b" stroke="#011c2b"></path><path d="M315 171.4L270 171.4L270 214.3Z" fill="#000b1d" stroke="#000b1d"></path><path d="M270 214.3L225 214.3L225 257.1Z" fill="#000000" stroke="#000000"></path><path d="M585 214.3L585 171.4L540 171.4Z" fill="#00202f" stroke="#00202f"></path><path d="M540 171.4L540 128.6L495 128.6Z" fill="#001524" stroke="#001524"></path><path d="M630 214.3L585 171.4L585 214.3Z" fill="#001e2d" stroke="#001e2d"></path><path d="M495 514.3L540 514.3L540 471.4Z" fill="#001222" stroke="#001222"></path><path d="M270 471.4L315 514.3L315 471.4Z" fill="#011c2b" stroke="#011c2b"></path><path d="M585 171.4L540 128.6L540 171.4Z" fill="#001524" stroke="#001524"></path><path d="M360 128.6L315 128.6L315 171.4Z" fill="#001e2d" stroke="#001e2d"></path><path d="M585 471.4L630 428.6L585 428.6Z" fill="#011c2b" stroke="#011c2b"></path><path d="M225 385.7L225 428.6L270 428.6Z" fill="#011c2b" stroke="#011c2b"></path><path d="M270 171.4L225 214.3L270 214.3Z" fill="#00071b" stroke="#00071b"></path><path d="M630 257.1L630 214.3L585 214.3Z" fill="#001e2d" stroke="#001e2d"></path><path d="M405 514.3L405 557.1L450 514.3Z" fill="#000b1d" stroke="#000b1d"></path><path d="M450 514.3L450 557.1L495 514.3Z" fill="#000000" stroke="#000000"></path><path d="M495 514.3L495 557.1L540 514.3Z" fill="#00202f" stroke="#00202f"></path><path d="M360 514.3L405 557.1L405 514.3Z" fill="#011c2b" stroke="#011c2b"></path><path d="M360 557.1L405 557.1L360 514.3Z" fill="#000f1f" stroke="#000f1f"></path><path d="M405 557.1L450 557.1L450 514.3Z" fill="#001222" stroke="#001222"></path><path d="M450 128.6L450 85.7L405 128.6Z" fill="#011928" stroke="#011928"></path><path d="M405 128.6L405 85.7L360 128.6Z" fill="#011c2b" stroke="#011c2b"></path><path d="M360 128.6L360 85.7L315 128.6Z" fill="#001524" stroke="#001524"></path><path d="M495 128.6L450 85.7L450 128.6Z" fill="#000f1f" stroke="#000f1f"></path><path d="M495 85.7L450 85.7L495 128.6Z" fill="#00071b" stroke="#00071b"></path><path d="M450 85.7L405 85.7L405 128.6Z" fill="#011c2b" stroke="#011c2b"></path><path d="M315 557.1L360 557.1L315 514.3Z" fill="#00071b" stroke="#00071b"></path><path d="M315 514.3L360 557.1L360 514.3Z" fill="#000000" stroke="#000000"></path><path d="M450 557.1L495 557.1L495 514.3Z" fill="#000f1f" stroke="#000f1f"></path><path d="M540 514.3L585 514.3L585 471.4Z" fill="#000b1d" stroke="#000b1d"></path><path d="M405 85.7L360 85.7L360 128.6Z" fill="#000b1d" stroke="#000b1d"></path><path d="M540 128.6L495 85.7L495 128.6Z" fill="#001222" stroke="#001222"></path><path d="M630 385.7L675 342.9L630 342.9Z" fill="#000b1d" stroke="#000b1d"></path><path d="M630 342.9L675 342.9L630 300Z" fill="#011726" stroke="#011726"></path><path d="M630 300L675 300L630 257.1Z" fill="#000000" stroke="#000000"></path><path d="M630 257.1L675 257.1L630 214.3Z" fill="#00071b" stroke="#00071b"></path><path d="M675 385.7L675 342.9L630 385.7Z" fill="#000f1f" stroke="#000f1f"></path><path d="M225 257.1L180 300L225 300Z" fill="#001e2d" stroke="#001e2d"></path><path d="M225 300L180 300L225 342.9Z" fill="#011c2b" stroke="#011c2b"></path><path d="M225 342.9L180 342.9L225 385.7Z" fill="#000b1d" stroke="#000b1d"></path><path d="M225 385.7L180 385.7L225 428.6Z" fill="#000f1f" stroke="#000f1f"></path><path d="M180 257.1L180 300L225 257.1Z" fill="#000b1d" stroke="#000b1d"></path><path d="M675 342.9L675 300L630 300Z" fill="#001e2d" stroke="#001e2d"></path><path d="M180 300L180 342.9L225 342.9Z" fill="#011c2b" stroke="#011c2b"></path><path d="M225 471.4L270 514.3L270 471.4Z" fill="#011726" stroke="#011726"></path><path d="M270 471.4L270 514.3L315 514.3Z" fill="#000000" stroke="#000000"></path><path d="M540 557.1L585 514.3L540 514.3Z" fill="#00071b" stroke="#00071b"></path><path d="M585 471.4L630 471.4L630 428.6Z" fill="#00071b" stroke="#00071b"></path><path d="M585 171.4L585 128.6L540 128.6Z" fill="#000000" stroke="#000000"></path><path d="M540 128.6L540 85.7L495 85.7Z" fill="#00202f" stroke="#00202f"></path><path d="M630 171.4L585 128.6L585 171.4Z" fill="#000000" stroke="#000000"></path><path d="M315 128.6L270 128.6L270 171.4Z" fill="#000f1f" stroke="#000f1f"></path><path d="M270 171.4L225 171.4L225 214.3Z" fill="#001524" stroke="#001524"></path><path d="M315 85.7L270 128.6L315 128.6Z" fill="#001524" stroke="#001524"></path><path d="M180 428.6L225 471.4L225 428.6Z" fill="#00202f" stroke="#00202f"></path><path d="M225 428.6L225 471.4L270 471.4Z" fill="#001524" stroke="#001524"></path><path d="M585 514.3L630 471.4L585 471.4Z" fill="#00202f" stroke="#00202f"></path><path d="M630 428.6L675 385.7L630 385.7Z" fill="#000b1d" stroke="#000b1d"></path><path d="M270 128.6L225 171.4L270 171.4Z" fill="#011928" stroke="#011928"></path><path d="M225 214.3L180 257.1L225 257.1Z" fill="#001e2d" stroke="#001e2d"></path><path d="M675 214.3L630 171.4L630 214.3Z" fill="#001222" stroke="#001222"></path><path d="M630 214.3L630 171.4L585 171.4Z" fill="#011726" stroke="#011726"></path><path d="M675 428.6L675 385.7L630 428.6Z" fill="#000000" stroke="#000000"></path><path d="M180 342.9L180 385.7L225 385.7Z" fill="#011928" stroke="#011928"></path><path d="M180 214.3L180 257.1L225 214.3Z" fill="#000b1d" stroke="#000b1d"></path><path d="M675 300L675 257.1L630 257.1Z" fill="#000000" stroke="#000000"></path><path d="M270 514.3L315 557.1L315 514.3Z" fill="#000000" stroke="#000000"></path><path d="M270 557.1L315 557.1L270 514.3Z" fill="#011726" stroke="#011726"></path><path d="M495 557.1L540 557.1L540 514.3Z" fill="#00202f" stroke="#00202f"></path><path d="M585 514.3L630 514.3L630 471.4Z" fill="#001524" stroke="#001524"></path><path d="M360 85.7L315 85.7L315 128.6Z" fill="#011c2b" stroke="#011c2b"></path><path d="M585 128.6L540 85.7L540 128.6Z" fill="#011928" stroke="#011928"></path><path d="M180 385.7L180 428.6L225 428.6Z" fill="#011c2b" stroke="#011c2b"></path><path d="M630 471.4L675 428.6L630 428.6Z" fill="#001222" stroke="#001222"></path><path d="M225 171.4L180 214.3L225 214.3Z" fill="#001524" stroke="#001524"></path><path d="M675 257.1L675 214.3L630 214.3Z" fill="#000000" stroke="#000000"></path><path d="M405 557.1L405 600L450 557.1Z" fill="#00071b" stroke="#00071b"></path><path d="M450 557.1L450 600L495 557.1Z" fill="#00071b" stroke="#00071b"></path><path d="M495 557.1L495 600L540 557.1Z" fill="#011c2b" stroke="#011c2b"></path><path d="M360 557.1L405 600L405 557.1Z" fill="#011c2b" stroke="#011c2b"></path><path d="M360 600L405 600L360 557.1Z" fill="#00202f" stroke="#00202f"></path><path d="M405 600L450 600L450 557.1Z" fill="#011c2b" stroke="#011c2b"></path><path d="M450 85.7L450 42.9L405 85.7Z" fill="#00071b" stroke="#00071b"></path><path d="M405 85.7L405 42.9L360 85.7Z" fill="#00202f" stroke="#00202f"></path><path d="M360 85.7L360 42.9L315 85.7Z" fill="#011726" stroke="#011726"></path><path d="M495 85.7L450 42.9L450 85.7Z" fill="#00071b" stroke="#00071b"></path><path d="M495 42.9L450 42.9L495 85.7Z" fill="#011928" stroke="#011928"></path><path d="M450 42.9L405 42.9L405 85.7Z" fill="#000f1f" stroke="#000f1f"></path><path d="M585 557.1L630 514.3L585 514.3Z" fill="#001e2d" stroke="#001e2d"></path><path d="M630 471.4L675 471.4L675 428.6Z" fill="#00071b" stroke="#00071b"></path><path d="M180 471.4L225 514.3L225 471.4Z" fill="#000f1f" stroke="#000f1f"></path><path d="M225 471.4L225 514.3L270 514.3Z" fill="#001524" stroke="#001524"></path><path d="M630 171.4L630 128.6L585 128.6Z" fill="#00202f" stroke="#00202f"></path><path d="M585 128.6L585 85.7L540 85.7Z" fill="#000b1d" stroke="#000b1d"></path><path d="M675 171.4L630 128.6L630 171.4Z" fill="#001e2d" stroke="#001e2d"></path><path d="M270 85.7L225 128.6L270 128.6Z" fill="#011726" stroke="#011726"></path><path d="M270 128.6L225 128.6L225 171.4Z" fill="#000f1f" stroke="#000f1f"></path><path d="M225 171.4L180 171.4L180 214.3Z" fill="#011928" stroke="#011928"></path><path d="M540 557.1L585 557.1L585 514.3Z" fill="#001e2d" stroke="#001e2d"></path><path d="M540 600L585 557.1L540 557.1Z" fill="#000f1f" stroke="#000f1f"></path><path d="M225 514.3L270 557.1L270 514.3Z" fill="#011726" stroke="#011726"></path><path d="M315 557.1L360 600L360 557.1Z" fill="#000000" stroke="#000000"></path><path d="M630 128.6L585 85.7L585 128.6Z" fill="#00071b" stroke="#00071b"></path><path d="M540 85.7L495 42.9L495 85.7Z" fill="#000000" stroke="#000000"></path><path d="M315 85.7L270 85.7L270 128.6Z" fill="#000b1d" stroke="#000b1d"></path><path d="M315 42.9L270 85.7L315 85.7Z" fill="#00202f" stroke="#00202f"></path><path d="M315 600L360 600L315 557.1Z" fill="#00202f" stroke="#00202f"></path><path d="M450 600L495 600L495 557.1Z" fill="#001e2d" stroke="#001e2d"></path><path d="M540 42.9L495 42.9L540 85.7Z" fill="#011c2b" stroke="#011c2b"></path><path d="M405 42.9L360 42.9L360 85.7Z" fill="#001e2d" stroke="#001e2d"></path><path d="M675 514.3L675 471.4L630 514.3Z" fill="#001524" stroke="#001524"></path><path d="M630 514.3L675 471.4L630 471.4Z" fill="#00071b" stroke="#00071b"></path><path d="M180 428.6L180 471.4L225 471.4Z" fill="#00202f" stroke="#00202f"></path><path d="M225 514.3L225 557.1L270 557.1Z" fill="#000f1f" stroke="#000f1f"></path><path d="M225 128.6L180 171.4L225 171.4Z" fill="#001e2d" stroke="#001e2d"></path><path d="M675 214.3L675 171.4L630 171.4Z" fill="#00202f" stroke="#00202f"></path><path d="M180 342.9L135 342.9L180 385.7Z" fill="#001222" stroke="#001222"></path><path d="M180 385.7L135 385.7L180 428.6Z" fill="#000f1f" stroke="#000f1f"></path><path d="M180 428.6L135 428.6L180 471.4Z" fill="#011726" stroke="#011726"></path><path d="M180 300L135 342.9L180 342.9Z" fill="#011c2b" stroke="#011c2b"></path><path d="M135 300L135 342.9L180 300Z" fill="#001e2d" stroke="#001e2d"></path><path d="M135 300L180 300L180 257.1Z" fill="#000b1d" stroke="#000b1d"></path><path d="M135 300L180 257.1L135 257.1Z" fill="#001e2d" stroke="#001e2d"></path><path d="M720 385.7L720 342.9L675 385.7Z" fill="#011c2b" stroke="#011c2b"></path><path d="M675 385.7L720 342.9L675 342.9Z" fill="#001222" stroke="#001222"></path><path d="M675 342.9L720 342.9L675 300Z" fill="#001524" stroke="#001524"></path><path d="M675 300L720 300L675 257.1Z" fill="#000f1f" stroke="#000f1f"></path><path d="M675 257.1L720 257.1L675 214.3Z" fill="#011726" stroke="#011726"></path><path d="M675 214.3L720 214.3L675 171.4Z" fill="#000b1d" stroke="#000b1d"></path><path d="M720 385.7L675 385.7L675 428.6Z" fill="#001524" stroke="#001524"></path><path d="M720 342.9L720 300L675 300Z" fill="#000000" stroke="#000000"></path><path d="M135 257.1L180 257.1L180 214.3Z" fill="#000f1f" stroke="#000f1f"></path><path d="M720 428.6L720 385.7L675 428.6Z" fill="#000000" stroke="#000000"></path><path d="M135 342.9L135 385.7L180 385.7Z" fill="#011928" stroke="#011928"></path><path d="M135 214.3L135 257.1L180 214.3Z" fill="#011928" stroke="#011928"></path><path d="M720 300L720 257.1L675 257.1Z" fill="#000b1d" stroke="#000b1d"></path><path d="M270 557.1L315 600L315 557.1Z" fill="#000b1d" stroke="#000b1d"></path><path d="M270 600L315 600L270 557.1Z" fill="#00071b" stroke="#00071b"></path><path d="M495 600L540 600L540 557.1Z" fill="#00202f" stroke="#00202f"></path><path d="M585 557.1L630 557.1L630 514.3Z" fill="#001e2d" stroke="#001e2d"></path><path d="M360 42.9L315 42.9L315 85.7Z" fill="#001524" stroke="#001524"></path><path d="M585 85.7L540 42.9L540 85.7Z" fill="#00071b" stroke="#00071b"></path><path d="M585 600L630 557.1L585 557.1Z" fill="#001524" stroke="#001524"></path><path d="M180 514.3L225 557.1L225 514.3Z" fill="#011928" stroke="#011928"></path><path d="M630 128.6L630 85.7L585 85.7Z" fill="#011726" stroke="#011726"></path><path d="M585 85.7L585 42.9L540 42.9Z" fill="#011928" stroke="#011928"></path><path d="M675 128.6L630 85.7L630 128.6Z" fill="#001524" stroke="#001524"></path><path d="M270 85.7L225 85.7L225 128.6Z" fill="#000b1d" stroke="#000b1d"></path><path d="M225 128.6L180 128.6L180 171.4Z" fill="#011928" stroke="#011928"></path><path d="M270 42.9L225 85.7L270 85.7Z" fill="#011c2b" stroke="#011c2b"></path><path d="M720 471.4L720 428.6L675 471.4Z" fill="#000000" stroke="#000000"></path><path d="M675 471.4L720 428.6L675 428.6Z" fill="#000b1d" stroke="#000b1d"></path><path d="M135 385.7L135 428.6L180 428.6Z" fill="#000f1f" stroke="#000f1f"></path><path d="M180 471.4L180 514.3L225 514.3Z" fill="#001524" stroke="#001524"></path><path d="M135 171.4L135 214.3L180 171.4Z" fill="#011928" stroke="#011928"></path><path d="M180 171.4L135 214.3L180 214.3Z" fill="#000f1f" stroke="#000f1f"></path><path d="M720 257.1L720 214.3L675 214.3Z" fill="#000000" stroke="#000000"></path><path d="M675 171.4L675 128.6L630 128.6Z" fill="#000000" stroke="#000000"></path><path d="M630 557.1L675 514.3L630 514.3Z" fill="#000f1f" stroke="#000f1f"></path><path d="M135 471.4L180 514.3L180 471.4Z" fill="#001e2d" stroke="#001e2d"></path><path d="M225 85.7L180 128.6L225 128.6Z" fill="#001524" stroke="#001524"></path><path d="M720 171.4L675 128.6L675 171.4Z" fill="#011928" stroke="#011928"></path><path d="M225 557.1L270 600L270 557.1Z" fill="#000b1d" stroke="#000b1d"></path><path d="M540 600L585 600L585 557.1Z" fill="#000b1d" stroke="#000b1d"></path><path d="M630 85.7L585 42.9L585 85.7Z" fill="#000b1d" stroke="#000b1d"></path><path d="M315 42.9L270 42.9L270 85.7Z" fill="#001524" stroke="#001524"></path><path d="M450 42.9L405 0L405 42.9Z" fill="#001e2d" stroke="#001e2d"></path><path d="M405 42.9L405 0L360 42.9Z" fill="#000b1d" stroke="#000b1d"></path><path d="M360 42.9L360 0L315 42.9Z" fill="#000b1d" stroke="#000b1d"></path><path d="M315 42.9L315 0L270 42.9Z" fill="#000f1f" stroke="#000f1f"></path><path d="M450 0L405 0L450 42.9Z" fill="#001222" stroke="#001222"></path><path d="M450 0L450 42.9L495 42.9Z" fill="#00071b" stroke="#00071b"></path><path d="M450 0L495 42.9L495 0Z" fill="#00071b" stroke="#00071b"></path><path d="M495 0L495 42.9L540 42.9Z" fill="#001524" stroke="#001524"></path><path d="M405 0L360 0L360 42.9Z" fill="#001e2d" stroke="#001e2d"></path><path d="M540 0L495 0L540 42.9Z" fill="#001524" stroke="#001524"></path><path d="M720 514.3L720 471.4L675 514.3Z" fill="#00202f" stroke="#00202f"></path><path d="M675 514.3L720 471.4L675 471.4Z" fill="#00202f" stroke="#00202f"></path><path d="M675 557.1L675 514.3L630 557.1Z" fill="#001222" stroke="#001222"></path><path d="M135 428.6L135 471.4L180 471.4Z" fill="#001222" stroke="#001222"></path><path d="M180 514.3L180 557.1L225 557.1Z" fill="#000000" stroke="#000000"></path><path d="M225 557.1L225 600L270 600Z" fill="#011726" stroke="#011726"></path><path d="M720 214.3L720 171.4L675 171.4Z" fill="#000b1d" stroke="#000b1d"></path><path d="M180 128.6L135 171.4L180 171.4Z" fill="#011928" stroke="#011928"></path><path d="M765 385.7L765 342.9L720 385.7Z" fill="#011726" stroke="#011726"></path><path d="M720 385.7L765 342.9L720 342.9Z" fill="#001524" stroke="#001524"></path><path d="M720 342.9L765 342.9L720 300Z" fill="#011c2b" stroke="#011c2b"></path><path d="M720 300L765 300L720 257.1Z" fill="#000b1d" stroke="#000b1d"></path><path d="M720 257.1L765 257.1L720 214.3Z" fill="#00202f" stroke="#00202f"></path><path d="M720 214.3L765 214.3L720 171.4Z" fill="#00202f" stroke="#00202f"></path><path d="M765 385.7L720 385.7L720 428.6Z" fill="#001222" stroke="#001222"></path><path d="M135 342.9L90 342.9L135 385.7Z" fill="#000b1d" stroke="#000b1d"></path><path d="M135 385.7L90 385.7L135 428.6Z" fill="#000b1d" stroke="#000b1d"></path><path d="M135 428.6L90 428.6L135 471.4Z" fill="#011928" stroke="#011928"></path><path d="M135 300L90 342.9L135 342.9Z" fill="#001e2d" stroke="#001e2d"></path><path d="M90 300L90 342.9L135 300Z" fill="#011928" stroke="#011928"></path><path d="M90 300L135 300L135 257.1Z" fill="#001e2d" stroke="#001e2d"></path><path d="M90 300L135 257.1L90 257.1Z" fill="#00202f" stroke="#00202f"></path><path d="M765 342.9L765 300L720 300Z" fill="#001e2d" stroke="#001e2d"></path><path d="M90 257.1L135 257.1L135 214.3Z" fill="#011c2b" stroke="#011c2b"></path><path d="M585 42.9L540 0L540 42.9Z" fill="#000b1d" stroke="#000b1d"></path><path d="M360 0L315 0L315 42.9Z" fill="#00202f" stroke="#00202f"></path><path d="M135 514.3L180 557.1L180 514.3Z" fill="#011c2b" stroke="#011c2b"></path><path d="M630 600L675 557.1L630 557.1Z" fill="#000000" stroke="#000000"></path><path d="M630 85.7L630 42.9L585 42.9Z" fill="#001e2d" stroke="#001e2d"></path><path d="M585 42.9L585 0L540 0Z" fill="#001222" stroke="#001222"></path><path d="M675 128.6L675 85.7L630 85.7Z" fill="#00071b" stroke="#00071b"></path><path d="M720 128.6L675 85.7L675 128.6Z" fill="#001e2d" stroke="#001e2d"></path><path d="M225 42.9L225 85.7L270 42.9Z" fill="#000f1f" stroke="#000f1f"></path><path d="M225 42.9L180 85.7L225 85.7Z" fill="#001524" stroke="#001524"></path><path d="M225 85.7L180 85.7L180 128.6Z" fill="#00071b" stroke="#00071b"></path><path d="M180 128.6L135 128.6L135 171.4Z" fill="#011726" stroke="#011726"></path><path d="M90 342.9L90 385.7L135 385.7Z" fill="#011c2b" stroke="#011c2b"></path><path d="M765 428.6L765 385.7L720 428.6Z" fill="#011928" stroke="#011928"></path><path d="M765 300L765 257.1L720 257.1Z" fill="#00071b" stroke="#00071b"></path><path d="M90 214.3L90 257.1L135 214.3Z" fill="#011c2b" stroke="#011c2b"></path><path d="M180 557.1L225 600L225 557.1Z" fill="#00071b" stroke="#00071b"></path><path d="M585 600L630 600L630 557.1Z" fill="#011c2b" stroke="#011c2b"></path><path d="M675 85.7L630 42.9L630 85.7Z" fill="#000b1d" stroke="#000b1d"></path><path d="M270 0L225 42.9L270 42.9Z" fill="#001222" stroke="#001222"></path><path d="M675 557.1L720 514.3L675 514.3Z" fill="#011726" stroke="#011726"></path><path d="M720 471.4L765 428.6L720 428.6Z" fill="#011726" stroke="#011726"></path><path d="M90 471.4L135 514.3L135 471.4Z" fill="#00071b" stroke="#00071b"></path><path d="M135 471.4L135 514.3L180 514.3Z" fill="#011726" stroke="#011726"></path><path d="M765 171.4L720 128.6L720 171.4Z" fill="#000000" stroke="#000000"></path><path d="M720 171.4L720 128.6L675 128.6Z" fill="#011c2b" stroke="#011c2b"></path><path d="M180 85.7L135 128.6L180 128.6Z" fill="#00202f" stroke="#00202f"></path><path d="M135 171.4L90 214.3L135 214.3Z" fill="#011726" stroke="#011726"></path><path d="M765 471.4L765 428.6L720 471.4Z" fill="#011726" stroke="#011726"></path><path d="M90 385.7L90 428.6L135 428.6Z" fill="#000000" stroke="#000000"></path><path d="M765 257.1L765 214.3L720 214.3Z" fill="#001524" stroke="#001524"></path><path d="M90 171.4L90 214.3L135 171.4Z" fill="#001222" stroke="#001222"></path><path d="M315 0L270 0L270 42.9Z" fill="#011726" stroke="#011726"></path><path d="M630 42.9L585 0L585 42.9Z" fill="#001524" stroke="#001524"></path><path d="M90 428.6L90 471.4L135 471.4Z" fill="#011726" stroke="#011726"></path><path d="M135 557.1L180 600L180 557.1Z" fill="#000b1d" stroke="#000b1d"></path><path d="M180 557.1L180 600L225 600Z" fill="#001e2d" stroke="#001e2d"></path><path d="M765 514.3L765 471.4L720 514.3Z" fill="#000b1d" stroke="#000b1d"></path><path d="M720 514.3L765 471.4L720 471.4Z" fill="#000f1f" stroke="#000f1f"></path><path d="M720 557.1L720 514.3L675 557.1Z" fill="#001222" stroke="#001222"></path><path d="M135 128.6L90 171.4L135 171.4Z" fill="#011726" stroke="#011726"></path><path d="M765 214.3L765 171.4L720 171.4Z" fill="#001e2d" stroke="#001e2d"></path><path d="M630 600L675 600L675 557.1Z" fill="#011c2b" stroke="#011c2b"></path><path d="M135 557.1L180 557.1L135 514.3Z" fill="#011726" stroke="#011726"></path><path d="M225 42.9L180 42.9L180 85.7Z" fill="#000f1f" stroke="#000f1f"></path><path d="M180 85.7L135 85.7L135 128.6Z" fill="#000b1d" stroke="#000b1d"></path><path d="M135 128.6L90 128.6L90 171.4Z" fill="#001e2d" stroke="#001e2d"></path><path d="M225 0L180 42.9L225 42.9Z" fill="#00071b" stroke="#00071b"></path><path d="M675 85.7L675 42.9L630 42.9Z" fill="#001524" stroke="#001524"></path><path d="M630 42.9L630 0L585 0Z" fill="#000000" stroke="#000000"></path><path d="M720 85.7L675 42.9L675 85.7Z" fill="#011726" stroke="#011726"></path><path d="M720 85.7L675 85.7L720 128.6Z" fill="#00202f" stroke="#00202f"></path><path d="M90 514.3L135 557.1L135 514.3Z" fill="#00071b" stroke="#00071b"></path><path d="M675 600L720 557.1L675 557.1Z" fill="#00071b" stroke="#00071b"></path><path d="M765 128.6L720 85.7L720 128.6Z" fill="#001222" stroke="#001222"></path><path d="M180 42.9L135 85.7L180 85.7Z" fill="#011928" stroke="#011928"></path><path d="M675 42.9L630 0L630 42.9Z" fill="#011c2b" stroke="#011c2b"></path><path d="M270 0L225 0L225 42.9Z" fill="#000000" stroke="#000000"></path><path d="M810 385.7L810 342.9L765 385.7Z" fill="#001524" stroke="#001524"></path><path d="M765 385.7L810 342.9L765 342.9Z" fill="#001e2d" stroke="#001e2d"></path><path d="M765 342.9L810 342.9L765 300Z" fill="#000000" stroke="#000000"></path><path d="M765 300L810 300L765 257.1Z" fill="#001222" stroke="#001222"></path><path d="M765 257.1L810 257.1L765 214.3Z" fill="#000f1f" stroke="#000f1f"></path><path d="M765 214.3L810 214.3L765 171.4Z" fill="#001222" stroke="#001222"></path><path d="M810 385.7L765 385.7L765 428.6Z" fill="#011726" stroke="#011726"></path><path d="M810 342.9L810 300L765 300Z" fill="#000f1f" stroke="#000f1f"></path><path d="M45 257.1L45 300L90 257.1Z" fill="#011928" stroke="#011928"></path><path d="M90 257.1L45 300L90 300Z" fill="#001e2d" stroke="#001e2d"></path><path d="M90 300L45 300L90 342.9Z" fill="#00071b" stroke="#00071b"></path><path d="M90 342.9L45 342.9L90 385.7Z" fill="#001524" stroke="#001524"></path><path d="M90 385.7L45 385.7L90 428.6Z" fill="#001e2d" stroke="#001e2d"></path><path d="M90 428.6L45 428.6L90 471.4Z" fill="#000f1f" stroke="#000f1f"></path><path d="M45 257.1L90 257.1L90 214.3Z" fill="#011928" stroke="#011928"></path><path d="M45 300L45 342.9L90 342.9Z" fill="#011c2b" stroke="#011c2b"></path><path d="M810 428.6L810 385.7L765 428.6Z" fill="#00071b" stroke="#00071b"></path><path d="M45 342.9L45 385.7L90 385.7Z" fill="#00202f" stroke="#00202f"></path><path d="M45 214.3L45 257.1L90 214.3Z" fill="#001222" stroke="#001222"></path><path d="M810 300L810 257.1L765 257.1Z" fill="#001222" stroke="#001222"></path><path d="M45 471.4L90 514.3L90 471.4Z" fill="#001222" stroke="#001222"></path><path d="M90 471.4L90 514.3L135 514.3Z" fill="#000000" stroke="#000000"></path><path d="M720 557.1L765 514.3L720 514.3Z" fill="#000000" stroke="#000000"></path><path d="M765 471.4L810 428.6L765 428.6Z" fill="#00071b" stroke="#00071b"></path><path d="M810 171.4L765 128.6L765 171.4Z" fill="#011726" stroke="#011726"></path><path d="M765 171.4L765 128.6L720 128.6Z" fill="#000b1d" stroke="#000b1d"></path><path d="M135 85.7L90 128.6L135 128.6Z" fill="#001e2d" stroke="#001e2d"></path><path d="M90 171.4L45 214.3L90 214.3Z" fill="#011726" stroke="#011726"></path><path d="M810 471.4L810 428.6L765 471.4Z" fill="#011726" stroke="#011726"></path><path d="M45 385.7L45 428.6L90 428.6Z" fill="#001e2d" stroke="#001e2d"></path><path d="M45 171.4L45 214.3L90 171.4Z" fill="#001222" stroke="#001222"></path><path d="M810 257.1L810 214.3L765 214.3Z" fill="#011726" stroke="#011726"></path><path d="M90 557.1L135 600L135 557.1Z" fill="#00071b" stroke="#00071b"></path><path d="M135 557.1L135 600L180 600Z" fill="#00071b" stroke="#00071b"></path><path d="M90 557.1L135 557.1L90 514.3Z" fill="#00202f" stroke="#00202f"></path><path d="M675 600L720 600L720 557.1Z" fill="#000b1d" stroke="#000b1d"></path><path d="M720 557.1L765 557.1L765 514.3Z" fill="#000f1f" stroke="#000f1f"></path><path d="M765 514.3L810 471.4L765 471.4Z" fill="#00202f" stroke="#00202f"></path><path d="M180 42.9L135 42.9L135 85.7Z" fill="#001524" stroke="#001524"></path><path d="M135 85.7L90 85.7L90 128.6Z" fill="#001524" stroke="#001524"></path><path d="M180 0L135 42.9L180 42.9Z" fill="#001222" stroke="#001222"></path><path d="M720 85.7L720 42.9L675 42.9Z" fill="#001222" stroke="#001222"></path><path d="M675 42.9L675 0L630 0Z" fill="#000000" stroke="#000000"></path><path d="M765 85.7L720 42.9L720 85.7Z" fill="#00202f" stroke="#00202f"></path><path d="M225 0L180 0L180 42.9Z" fill="#00202f" stroke="#00202f"></path><path d="M720 42.9L675 0L675 42.9Z" fill="#001222" stroke="#001222"></path><path d="M45 428.6L45 471.4L90 471.4Z" fill="#001222" stroke="#001222"></path><path d="M810 514.3L810 471.4L765 514.3Z" fill="#001e2d" stroke="#001e2d"></path><path d="M45 128.6L45 171.4L90 128.6Z" fill="#011c2b" stroke="#011c2b"></path><path d="M90 128.6L45 171.4L90 171.4Z" fill="#00202f" stroke="#00202f"></path><path d="M810 214.3L810 171.4L765 171.4Z" fill="#001222" stroke="#001222"></path><path d="M765 128.6L765 85.7L720 85.7Z" fill="#000f1f" stroke="#000f1f"></path><path d="M720 600L765 557.1L720 557.1Z" fill="#000b1d" stroke="#000b1d"></path><path d="M45 514.3L90 557.1L90 514.3Z" fill="#001e2d" stroke="#001e2d"></path><path d="M135 42.9L90 85.7L135 85.7Z" fill="#000000" stroke="#000000"></path><path d="M810 128.6L765 85.7L765 128.6Z" fill="#011928" stroke="#011928"></path><path d="M855 385.7L810 385.7L810 428.6Z" fill="#011726" stroke="#011726"></path><path d="M855 385.7L855 342.9L810 385.7Z" fill="#011928" stroke="#011928"></path><path d="M810 385.7L855 342.9L810 342.9Z" fill="#001524" stroke="#001524"></path><path d="M810 342.9L855 342.9L810 300Z" fill="#011928" stroke="#011928"></path><path d="M810 300L855 300L810 257.1Z" fill="#011928" stroke="#011928"></path><path d="M810 257.1L855 257.1L810 214.3Z" fill="#00071b" stroke="#00071b"></path><path d="M810 214.3L855 214.3L810 171.4Z" fill="#001222" stroke="#001222"></path><path d="M0 257.1L45 257.1L45 214.3Z" fill="#011c2b" stroke="#011c2b"></path><path d="M0 257.1L0 300L45 257.1Z" fill="#00071b" stroke="#00071b"></path><path d="M45 257.1L0 300L45 300Z" fill="#011726" stroke="#011726"></path><path d="M45 300L0 300L45 342.9Z" fill="#00202f" stroke="#00202f"></path><path d="M45 342.9L0 342.9L45 385.7Z" fill="#000000" stroke="#000000"></path><path d="M45 385.7L0 385.7L45 428.6Z" fill="#00202f" stroke="#00202f"></path><path d="M45 428.6L0 428.6L45 471.4Z" fill="#000000" stroke="#000000"></path><path d="M0 300L0 342.9L45 342.9Z" fill="#000b1d" stroke="#000b1d"></path><path d="M855 342.9L855 300L810 300Z" fill="#000f1f" stroke="#000f1f"></path><path d="M0 471.4L45 514.3L45 471.4Z" fill="#000000" stroke="#000000"></path><path d="M45 471.4L45 514.3L90 514.3Z" fill="#000000" stroke="#000000"></path><path d="M765 557.1L810 514.3L765 514.3Z" fill="#000000" stroke="#000000"></path><path d="M855 428.6L855 385.7L810 428.6Z" fill="#000000" stroke="#000000"></path><path d="M90 85.7L45 128.6L90 128.6Z" fill="#00202f" stroke="#00202f"></path><path d="M0 214.3L0 257.1L45 214.3Z" fill="#000b1d" stroke="#000b1d"></path><path d="M855 171.4L810 128.6L810 171.4Z" fill="#00071b" stroke="#00071b"></path><path d="M810 171.4L810 128.6L765 128.6Z" fill="#011c2b" stroke="#011c2b"></path><path d="M0 342.9L0 385.7L45 385.7Z" fill="#001524" stroke="#001524"></path><path d="M855 428.6L810 428.6L810 471.4Z" fill="#000b1d" stroke="#000b1d"></path><path d="M0 214.3L45 214.3L45 171.4Z" fill="#011c2b" stroke="#011c2b"></path><path d="M855 300L855 257.1L810 257.1Z" fill="#000000" stroke="#000000"></path><path d="M180 0L135 0L135 42.9Z" fill="#001222" stroke="#001222"></path><path d="M135 42.9L90 42.9L90 85.7Z" fill="#000000" stroke="#000000"></path><path d="M90 85.7L45 85.7L45 128.6Z" fill="#001524" stroke="#001524"></path><path d="M765 42.9L720 0L720 42.9Z" fill="#011928" stroke="#011928"></path><path d="M720 42.9L720 0L675 0Z" fill="#001524" stroke="#001524"></path><path d="M765 42.9L720 42.9L765 85.7Z" fill="#011928" stroke="#011928"></path><path d="M90 557.1L90 600L135 600Z" fill="#011726" stroke="#011726"></path><path d="M45 557.1L90 600L90 557.1Z" fill="#011726" stroke="#011726"></path><path d="M720 600L765 600L765 557.1Z" fill="#011928" stroke="#011928"></path><path d="M765 557.1L810 557.1L810 514.3Z" fill="#00071b" stroke="#00071b"></path><path d="M810 85.7L765 42.9L765 85.7Z" fill="#001524" stroke="#001524"></path><path d="M135 0L90 42.9L135 42.9Z" fill="#001524" stroke="#001524"></path><path d="M0 385.7L0 428.6L45 428.6Z" fill="#000000" stroke="#000000"></path><path d="M45 514.3L45 557.1L90 557.1Z" fill="#011c2b" stroke="#011c2b"></path><path d="M855 471.4L855 428.6L810 471.4Z" fill="#00202f" stroke="#00202f"></path><path d="M855 471.4L810 471.4L810 514.3Z" fill="#00071b" stroke="#00071b"></path><path d="M0 171.4L0 214.3L45 171.4Z" fill="#011726" stroke="#011726"></path><path d="M855 257.1L855 214.3L810 214.3Z" fill="#001222" stroke="#001222"></path><path d="M765 600L810 557.1L765 557.1Z" fill="#011928" stroke="#011928"></path><path d="M0 514.3L45 557.1L45 514.3Z" fill="#011c2b" stroke="#011c2b"></path><path d="M90 42.9L45 85.7L90 85.7Z" fill="#00202f" stroke="#00202f"></path><path d="M45 128.6L0 171.4L45 171.4Z" fill="#001524" stroke="#001524"></path><path d="M855 128.6L810 85.7L810 128.6Z" fill="#001524" stroke="#001524"></path><path d="M810 128.6L810 85.7L765 85.7Z" fill="#011928" stroke="#011928"></path><path d="M855 514.3L855 471.4L810 514.3Z" fill="#000b1d" stroke="#000b1d"></path><path d="M0 428.6L0 471.4L45 471.4Z" fill="#011c2b" stroke="#011c2b"></path><path d="M0 128.6L0 171.4L45 128.6Z" fill="#001222" stroke="#001222"></path><path d="M855 214.3L855 171.4L810 171.4Z" fill="#001524" stroke="#001524"></path><path d="M135 0L90 0L90 42.9Z" fill="#000f1f" stroke="#000f1f"></path><path d="M90 42.9L45 42.9L45 85.7Z" fill="#001222" stroke="#001222"></path><path d="M810 42.9L765 0L765 42.9Z" fill="#011726" stroke="#011726"></path><path d="M765 42.9L765 0L720 0Z" fill="#000b1d" stroke="#000b1d"></path><path d="M810 557.1L855 514.3L810 514.3Z" fill="#00071b" stroke="#00071b"></path><path d="M0 471.4L0 514.3L45 514.3Z" fill="#001e2d" stroke="#001e2d"></path><path d="M855 171.4L855 128.6L810 128.6Z" fill="#001e2d" stroke="#001e2d"></path><path d="M810 85.7L810 42.9L765 42.9Z" fill="#011726" stroke="#011726"></path><path d="M0 85.7L0 128.6L45 85.7Z" fill="#011928" stroke="#011928"></path><path d="M45 85.7L0 128.6L45 128.6Z" fill="#000f1f" stroke="#000f1f"></path><path d="M900 385.7L855 385.7L855 428.6Z" fill="#001524" stroke="#001524"></path><path d="M900 385.7L900 342.9L855 385.7Z" fill="#011c2b" stroke="#011c2b"></path><path d="M855 385.7L900 342.9L855 342.9Z" fill="#001222" stroke="#001222"></path><path d="M855 342.9L900 342.9L855 300Z" fill="#011726" stroke="#011726"></path><path d="M855 300L900 300L855 257.1Z" fill="#00202f" stroke="#00202f"></path><path d="M855 257.1L900 257.1L855 214.3Z" fill="#000b1d" stroke="#000b1d"></path><path d="M855 214.3L900 214.3L855 171.4Z" fill="#000000" stroke="#000000"></path><path d="M855 171.4L900 171.4L855 128.6Z" fill="#000f1f" stroke="#000f1f"></path><path d="M900 385.7L855 428.6L900 428.6Z" fill="#001524" stroke="#001524"></path><path d="M900 342.9L900 300L855 300Z" fill="#000f1f" stroke="#000f1f"></path><path d="M0 557.1L45 600L45 557.1Z" fill="#001222" stroke="#001222"></path><path d="M45 557.1L45 600L90 600Z" fill="#001524" stroke="#001524"></path><path d="M810 557.1L855 557.1L855 514.3Z" fill="#000000" stroke="#000000"></path><path d="M765 600L810 600L810 557.1Z" fill="#000000" stroke="#000000"></path><path d="M90 0L45 42.9L90 42.9Z" fill="#000b1d" stroke="#000b1d"></path><path d="M855 85.7L810 42.9L810 85.7Z" fill="#011c2b" stroke="#011c2b"></path><path d="M900 428.6L855 428.6L855 471.4Z" fill="#000b1d" stroke="#000b1d"></path><path d="M900 300L900 257.1L855 257.1Z" fill="#011928" stroke="#011928"></path><path d="M900 471.4L900 428.6L855 471.4Z" fill="#000000" stroke="#000000"></path><path d="M900 471.4L855 471.4L855 514.3Z" fill="#00071b" stroke="#00071b"></path><path d="M900 257.1L900 214.3L855 214.3Z" fill="#000b1d" stroke="#000b1d"></path><path d="M0 514.3L0 557.1L45 557.1Z" fill="#011928" stroke="#011928"></path><path d="M810 600L855 557.1L810 557.1Z" fill="#011928" stroke="#011928"></path><path d="M900 128.6L855 85.7L855 128.6Z" fill="#00071b" stroke="#00071b"></path><path d="M855 128.6L855 85.7L810 85.7Z" fill="#011928" stroke="#011928"></path><path d="M45 42.9L0 85.7L45 85.7Z" fill="#001524" stroke="#001524"></path><path d="M900 514.3L900 471.4L855 514.3Z" fill="#000000" stroke="#000000"></path><path d="M900 214.3L900 171.4L855 171.4Z" fill="#000f1f" stroke="#000f1f"></path><path d="M810 42.9L810 0L765 0Z" fill="#001e2d" stroke="#001e2d"></path><path d="M855 42.9L810 0L810 42.9Z" fill="#001e2d" stroke="#001e2d"></path><path d="M90 0L45 0L45 42.9Z" fill="#000000" stroke="#000000"></path><path d="M45 42.9L0 42.9L0 85.7Z" fill="#001e2d" stroke="#001e2d"></path><path d="M0 557.1L0 600L45 600Z" fill="#00202f" stroke="#00202f"></path><path d="M810 600L855 600L855 557.1Z" fill="#00071b" stroke="#00071b"></path><path d="M855 557.1L900 514.3L855 514.3Z" fill="#00071b" stroke="#00071b"></path><path d="M45 0L0 42.9L45 42.9Z" fill="#011928" stroke="#011928"></path><path d="M900 85.7L855 42.9L855 85.7Z" fill="#00202f" stroke="#00202f"></path><path d="M855 85.7L855 42.9L810 42.9Z" fill="#00071b" stroke="#00071b"></path><path d="M900 557.1L900 514.3L855 557.1Z" fill="#000f1f" stroke="#000f1f"></path><path d="M900 171.4L900 128.6L855 128.6Z" fill="#000f1f" stroke="#000f1f"></path><path d="M855 600L900 557.1L855 557.1Z" fill="#011c2b" stroke="#011c2b"></path><path d="M900 128.6L900 85.7L855 85.7Z" fill="#001e2d" stroke="#001e2d"></path><path d="M45 0L0 0L0 42.9Z" fill="#011928" stroke="#011928"></path><path d="M900 42.9L855 0L855 42.9Z" fill="#000b1d" stroke="#000b1d"></path><path d="M855 42.9L855 0L810 0Z" fill="#001222" stroke="#001222"></path><path d="M855 600L900 600L900 557.1Z" fill="#000f1f" stroke="#000f1f"></path><path d="M900 85.7L900 42.9L855 42.9Z" fill="#011c2b" stroke="#011c2b"></path><path d="M900 42.9L900 0L855 0Z" fill="#00202f" stroke="#00202f"></path></g></svg>